<?xml version="1.0" encoding="utf-8"?>
<svg width="800px" height="800px" viewBox="0 0 24 24" fill="none" xmlns="http://www.w3.org/2000/svg">
  <path d="M20.9991 16.4772C20.9991 18.4175 19.4394 19.9772 17.4991 19.9772H15.2444C15.2444 19.9772 15.2444 19.9772 15.2444 19.9772C15.2444 19.9772 8.24438 19.9772 8.24438 19.9772C6.30406 19.9772 4.74438 18.4175 4.74438 16.4772V5.0228C4.74438 3.08249 6.30406 1.5228 8.24438 1.5228H15.4991C17.4394 1.5228 18.9991 3.08249 18.9991 5.0228V15.9772" stroke="currentColor" stroke-width="1.5" stroke-linecap="round" stroke-linejoin="round"/>
  <path d="M8.74438 6.77295C8.74438 7.18717 8.40859 7.52295 7.99438 7.52295C7.58016 7.52295 7.24438 7.18717 7.24438 6.77295C7.24438 6.35874 7.58016 6.02295 7.99438 6.02295C8.40859 6.02295 8.74438 6.35874 8.74438 6.77295Z" fill="currentColor"/>
  <path d="M13.4991 9.02295C13.4991 9.43717 13.1633 9.77295 12.7491 9.77295C12.3349 9.77295 11.9991 9.43717 11.9991 9.02295C11.9991 8.60874 12.3349 8.27295 12.7491 8.27295C13.1633 8.27295 13.4991 8.60874 13.4991 9.02295Z" fill="currentColor"/>
  <path d="M13.4991 14.5228C13.4991 14.937 13.1633 15.2728 12.7491 15.2728C12.3349 15.2728 11.9991 14.937 11.9991 14.5228C11.9991 14.1086 12.3349 13.7728 12.7491 13.7728C13.1633 13.7728 13.4991 14.1086 13.4991 14.5228Z" fill="currentColor"/>
  <path d="M16.7491 6.77295C16.7491 7.18717 16.4133 7.52295 15.9991 7.52295C15.5849 7.52295 15.2491 7.18717 15.2491 6.77295C15.2491 6.35874 15.5849 6.02295 15.9991 6.02295C16.4133 6.02295 16.7491 6.35874 16.7491 6.77295Z" fill="currentColor"/>
  <path d="M8.74438 14.5228C8.74438 14.937 8.40859 15.2728 7.99438 15.2728C7.58016 15.2728 7.24438 14.937 7.24438 14.5228C7.24438 14.1086 7.58016 13.7728 7.99438 13.7728C8.40859 13.7728 8.74438 14.1086 8.74438 14.5228Z" fill="currentColor"/>
  <path d="M16.7491 11.2728C16.7491 11.687 16.4133 12.0228 15.9991 12.0228C15.5849 12.0228 15.2491 11.687 15.2491 11.2728C15.2491 10.8586 15.5849 10.5228 15.9991 10.5228C16.4133 10.5228 16.7491 10.8586 16.7491 11.2728Z" fill="currentColor"/>
</svg>