<?xml version="1.0" encoding="utf-8"?>
<svg width="800px" height="800px" viewBox="0 0 24 24" fill="none" xmlns="http://www.w3.org/2000/svg">
  <path d="M18.77 15.5L12.25 21.97C11.39 22.83 9.98 22.83 9.12 21.97L2.6 15.5C0.4 13.3 0.4 9.8 2.6 7.6C4.8 5.4 8.3 5.4 10.5 7.6L12 9.1L13.5 7.6C15.7 5.4 19.2 5.4 21.4 7.6C23.6 9.8 23.6 13.3 21.4 15.5H18.77Z" stroke="currentColor" stroke-width="1.5" stroke-linecap="round" stroke-linejoin="round"/>
  <path d="M7.24999 9.7L7.24999 5.9C7.24999 5.1 6.64999 4.5 5.84999 4.5C5.04999 4.5 4.44999 5.1 4.44999 5.9L4.44999 11" stroke="currentColor" stroke-width="1.5" stroke-linecap="round" stroke-linejoin="round"/>
  <path d="M4.45 11L4.45 2.5" stroke="currentColor" stroke-width="1.5" stroke-linecap="round" stroke-linejoin="round"/>
  <path d="M16.45 12.3L16.45 9.5C16.45 8.8 15.95 8.3 15.25 8.3C14.55 8.3 14.05 8.8 14.05 9.5L14.05 12.3" stroke="currentColor" stroke-width="1.5" stroke-linecap="round" stroke-linejoin="round"/>
  <path d="M14.05 12.3L14.05 6.2" stroke="currentColor" stroke-width="1.5" stroke-linecap="round" stroke-linejoin="round"/>
</svg>