<?xml version="1.0" encoding="utf-8"?>
<svg width="800px" height="800px" viewBox="0 0 24 24" fill="none" xmlns="http://www.w3.org/2000/svg">
  <path d="M18 8L22 4L18 0" stroke="currentColor" stroke-width="2" stroke-linecap="round" stroke-linejoin="round"/>
  <path d="M18 24L22 20L18 16" stroke="currentColor" stroke-width="2" stroke-linecap="round" stroke-linejoin="round"/>
  <path d="M2 6H6.5C7.88071 6 9 7.11929 9 8.5C9 9.88071 7.88071 11 6.5 11H4.5" stroke="currentColor" stroke-width="2" stroke-linecap="round"/>
  <path d="M2 18H6.5C7.88071 18 9 16.8807 9 15.5C9 14.1193 7.88071 13 6.5 13H4.5" stroke="currentColor" stroke-width="2" stroke-linecap="round"/>
  <path d="M22 4C16.5 4 15.5 12 9 12C7.5 12 6 11.5 5 10.5" stroke="currentColor" stroke-width="2" stroke-linecap="round" stroke-linejoin="round"/>
  <path d="M22 20C16.5 20 15.5 12 9 12C7.5 12 6 12.5 5 13.5" stroke="currentColor" stroke-width="2" stroke-linecap="round" stroke-linejoin="round"/>
</svg>